:SAMPLES-PER-SECOND 30
:FULLY-SPECIFIED
:DEGREES
587
root  7.26537 40.1808 -61.611 -179.937 2.27574 179.969
RightUpLeg  -0.615012 -0.691501 1.26269
RightLeg  1.77683 -7.69619 0.700892
RightFoot  -0.347471 0.0461849 -0.47321
RightToes  -5.82073e-011 -3.18055e-015 -2.98177e-016
Spine  0.842774 2.44621 2.16891
Spine1  8.15908 3.27104 -2.53719
HEad  -17.0464 -5.1218 3.67813
LeftShoulder1  -3.88251e-019 9.70628e-020 -3.87848e-018
LeftArm  -21.1193 43.6567 -74.2629
LeftForeArm  -0.427218 -21.2471 -0.394763
LeftHand  -0.675154 -4.92978 8.13445
RightShoulder  7.00602 10.2572 33.4576
RightArm  19.5406 -33.0736 38.3838
RightForeArm  4.05826 27.3328 -14.8536
RightHand  -1.46691 4.4826 -17.0423
LeftUpLeg  -2.53155 -3.71156 -3.61209
LeftLeg  3.13401 13.8061 3.59524
LeftFoot  -0.00942977 -0.100289 0.875862
LeftToes  -2.27483e-011 -5.53417e-011 9.36564e-012
588
root  7.18739 40.1901 -61.6869 179.975 2.33191 179.958
RightUpLeg  -0.32386 -0.7242 1.13942
RightLeg  1.57832 -7.60418 0.714963
RightFoot  -0.276954 0.0336108 -0.364037
RightToes  -5.82073e-011 -3.18055e-015 -2.98177e-016
Spine  0.314505 2.46223 2.26902
Spine1  8.633 3.34092 -2.77414
HEad  -16.4606 -4.87364 3.11178
LeftShoulder1  -3.88251e-019 9.70628e-020 -3.87848e-018
LeftArm  -21.6336 44.1516 -74.1101
LeftForeArm  -1.07128 -21.1839 -0.345478
LeftHand  -0.716447 -4.87492 8.66092
RightShoulder  7.13714 10.3245 33.99
RightArm  19.0218 -33.6624 37.4573
RightForeArm  5.36232 24.7756 -13.5854
RightHand  -1.3934 4.35774 -16.4071
LeftUpLeg  -2.19072 -3.77342 -3.77805
LeftLeg  2.9075 13.9456 3.52374
LeftFoot  -0.0467407 -0.107605 0.939351
LeftToes  -2.27483e-011 -5.53417e-011 9.36564e-012
589
root  7.10527 40.1947 -61.7609 179.972 2.59442 179.917
RightUpLeg  -0.245161 -0.758723 0.98768
RightLeg  1.53649 -7.32082 0.66986
RightFoot  -0.263823 0.0204321 -0.247111
RightToes  -5.82073e-011 -3.18055e-015 -2.98177e-016
Spine  -0.0706967 2.4452 2.04986
Spine1  8.77629 3.2788 -2.62286
HEad  -15.9234 -4.33947 2.48434
LeftShoulder1  -3.88251e-019 9.70628e-020 -3.87848e-018
LeftArm  -21.8838 45.3972 -73.6901
LeftForeArm  -2.10223 -21.1885 -0.287941
LeftHand  -0.752859 -4.84372 9.11531
RightShoulder  7.2523 10.369 34.4853
RightArm  18.0104 -34.3212 36.2266
RightForeArm  7.68083 21.8658 -11.8377
RightHand  -1.37008 4.37323 -16.112
LeftUpLeg  -1.90412 -3.92851 -4.01449
LeftLeg  2.64406 14.3801 3.49455
LeftFoot  -0.0899268 -0.114539 1.00369
LeftToes  -2.27483e-011 -5.53417e-011 9.36564e-012
590
root  7.01937 40.1944 -61.8201 179.979 2.80508 179.905
RightUpLeg  -0.205949 -0.799057 0.851218
RightLeg  1.52482 -7.08134 0.633841
RightFoot  -0.245454 0.0061441 -0.120339
RightToes  -5.82073e-011 -3.18055e-015 -2.98177e-016
Spine  -0.269291 2.32628 1.69269
Spine1  8.76091 3.0355 -2.15311
HEad  -15.4503 -3.57876 1.84433
LeftShoulder1  -3.88251e-019 9.70628e-020 -3.87848e-018
LeftArm  -21.5011 46.9543 -72.8162
LeftForeArm  -2.24104 -20.9863 -0.526577
LeftHand  -0.758573 -4.79541 9.22566
RightShoulder  7.29675 10.3791 34.6908
RightArm  13.4985 -35.2543 34.7416
RightForeArm  13.0345 19.2815 -8.88693
RightHand  -1.38281 4.35662 -16.2859
LeftUpLeg  -1.77035 -4.06459 -4.21578
LeftLeg  2.61302 14.7416 3.55074
LeftFoot  -0.218933 -0.122126 1.0791
LeftToes  -2.27483e-011 -5.53417e-011 9.36564e-012
591
root  6.9373 40.1923 -61.8666 179.958 2.86333 179.952
RightUpLeg  -0.0715275 -0.818163 0.775525
RightLeg  1.40916 -7.00408 0.6473
RightFoot  -0.173706 -0.00752084 -0.00316346
RightToes  -5.82073e-011 -3.18055e-015 -2.98177e-016
Spine  -0.396148 2.0755 1.35467
Spine1  8.82833 2.64166 -1.61179
HEad  -15.664 -2.72535 1.21867
LeftShoulder1  -3.88251e-019 9.70628e-020 -3.87848e-018
LeftArm  -21.0658 48.5018 -71.4824
LeftForeArm  -1.11103 -20.3084 -1.12075
LeftHand  -0.719041 -4.70581 8.83626
RightShoulder  7.33166 10.4103 34.8005
RightArm  7.57184 -36.475 32.9916
RightForeArm  18.7517 16.7529 -6.26207
RightHand  -1.35191 4.05761 -16.4133
LeftUpLeg  -1.75672 -4.08408 -4.29924
LeftLeg  2.81589 14.8296 3.63045
LeftFoot  -0.418874 -0.128904 1.14956
LeftToes  -2.27483e-011 -5.53417e-011 9.36564e-012
592
root  6.8617 40.19 -61.9073 179.907 2.96716 179.994
RightUpLeg  0.068806 -0.830695 0.704578
RightLeg  1.31131 -6.87995 0.646586
RightFoot  -0.101817 -0.0221173 0.119395
RightToes  -5.82073e-011 -3.18055e-015 -2.98177e-016
Spine  -0.493396 1.82791 0.96392
Spine1  9.03771 2.24622 -1.02949
HEad  -16.2791 -1.92652 0.730846
LeftShoulder1  -3.88251e-019 9.70628e-020 -3.87848e-018
LeftArm  -21.8026 49.9579 -70.046
LeftForeArm  -0.640349 -18.884 -1.93837
LeftHand  -0.626043 -4.53087 7.85687
RightShoulder  7.35546 10.4499 34.8345
RightArm  3.47164 -37.9973 31
RightForeArm  21.422 14.3984 -5.07898
RightHand  -1.25144 3.37679 -16.3531
LeftUpLeg  -1.70939 -4.02062 -4.33613
LeftLeg  3.00564 14.8758 3.62178
LeftFoot  -0.60188 -0.139728 1.26545
LeftToes  -2.27483e-011 -5.53417e-011 9.36564e-012
593
root  6.78781 40.1876 -61.9446 179.834 3.29013 179.976
RightUpLeg  0.0990917 -0.856931 0.579641
RightLeg  1.37893 -6.52287 0.565433
RightFoot  -0.0819498 -0.0394827 0.269563
RightToes  -5.82073e-011 -3.18055e-015 -2.98177e-016
Spine  -0.483278 1.72957 0.568698
Spine1  9.21296 2.02042 -0.500047
HEad  -17.2697 -1.25746 0.495843
LeftShoulder1  -3.88251e-019 9.70628e-020 -3.87848e-018
LeftArm  -23.7001 51.2915 -68.8176
LeftForeArm  -3.64118 -16.5193 -2.63686
LeftHand  -0.484282 -3.83529 6.57242
RightShoulder  7.34124 10.4549 34.7509
RightArm  1.70983 -39.7394 28.5188
RightForeArm  21.1507 12.5748 -4.73807
RightHand  -1.1582 2.66659 -16.4385
LeftUpLeg  -1.54709 -3.9707 -4.43195
LeftLeg  3.05295 15.1532 3.53366
LeftFoot  -0.735257 -0.156401 1.44506
LeftToes  -2.27483e-011 -5.53417e-011 9.36564e-012
594
root  6.71139 40.186 -61.9759 179.756 3.74782 179.954
RightUpLeg  0.0774516 -0.854933 0.463008
RightLeg  1.4908 -6.06406 0.447334
RightFoot  -0.0595353 -0.0564902 0.418726
RightToes  -5.82073e-011 -3.18055e-015 -2.98177e-016
Spine  -0.324197 1.72773 0.422162
Spine1  9.20124 1.97436 -0.320269
HEad  -18.6303 -0.329039 0.971933
LeftShoulder1  -3.88251e-019 9.70628e-020 -3.87848e-018
LeftArm  -25.2979 52.4627 -67.7696
LeftForeArm  -10.2277 -13.5222 -2.73262
LeftHand  -0.348578 -2.13263 5.87547
RightShoulder  7.35856 10.4544 34.8402
RightArm  1.69584 -41.3582 25.2087
RightForeArm  19.7663 11.2611 -4.52205
RightHand  -1.11695 2.31161 -16.5649
LeftUpLeg  -1.35072 -3.97472 -4.56917
LeftLeg  3.05513 15.6176 3.49557
LeftFoot  -0.849364 -0.170714 1.60147
LeftToes  -2.27483e-011 -5.53417e-011 9.36564e-012
595
root  6.63353 40.1864 -61.9958 179.713 4.20959 179.992
RightUpLeg  0.073359 -0.796271 0.418402
RightLeg  1.46974 -5.66213 0.37936
RightFoot  0.0336893 -0.0680498 0.514913
RightToes  -5.82073e-011 -3.18055e-015 -2.98177e-016
Spine  -0.0865471 1.70127 0.440391
Spine1  9.04547 1.94038 -0.329949
HEad  -19.7234 0.758029 1.5399
LeftShoulder1  -3.88251e-019 9.70628e-020 -3.87848e-018
LeftArm  -26.6587 53.5733 -66.8344
LeftForeArm  -15.796 -10.5248 -2.36018
LeftHand  -0.277395 0.0395148 6.60208
RightShoulder  7.41197 10.4673 35.0836
RightArm  2.55191 -42.6844 21.4632
RightForeArm  18.7129 10.2907 -4.37986
RightHand  -1.06755 2.08738 -16.2981
LeftUpLeg  -1.22986 -4.00969 -4.67971
LeftLeg  3.0862 16.1183 3.5538
LeftFoot  -0.945718 -0.176874 1.67309
LeftToes  -2.27483e-011 -5.53417e-011 9.36564e-012
596
root  6.55947 40.1873 -62.0027 179.745 4.66826 -179.966
RightUpLeg  0.0036116 -0.746438 0.375166
RightLeg  1.38819 -5.25383 0.369111
RightFoot  0.158568 -0.0743104 0.558545
RightToes  -5.82073e-011 -3.18055e-015 -2.98177e-016
Spine  0.200646 1.65354 0.300379
Spine1  8.68903 1.83158 -0.133129
HEad  -20.1327 1.71124 1.31931
LeftShoulder1  -3.88251e-019 9.70628e-020 -3.87848e-018
LeftArm  -27.8236 54.781 -66.0123
LeftForeArm  -17.3601 -7.85856 -1.84122
LeftHand  -0.259153 1.44418 8.38849
RightShoulder  7.41553 10.4658 35.105
RightArm  3.46755 -43.9689 17.9777
RightForeArm  18.2135 9.49459 -4.4665
RightHand  -0.978417 1.65084 -15.8513
LeftUpLeg  -1.19233 -4.05416 -4.77836
LeftLeg  3.06749 16.6333 3.59155
LeftFoot  -0.996382 -0.180179 1.71498
LeftToes  -2.27483e-011 -5.53417e-011 9.36564e-012
597
root  6.49448 40.1873 -62.0012 179.842 5.08369 -179.989
RightUpLeg  -0.191266 -0.761506 0.262511
RightLeg  1.39108 -4.81909 0.362975
RightFoot  0.245135 -0.079872 0.59649
RightToes  -5.82073e-011 -3.18055e-015 -2.98177e-016
Spine  0.401674 1.59214 -0.0429669
Spine1  8.34666 1.66521 0.272122
HEad  -20.1732 2.36878 0.55325
LeftShoulder1  -3.88251e-019 9.70628e-020 -3.87848e-018
LeftArm  -28.3106 55.9424 -65.1232
LeftForeArm  -16.3327 -5.49733 -1.44745
LeftHand  -0.289521 1.68489 10.0988
RightShoulder  7.3295 10.4226 34.7623
RightArm  4.11806 -45.3034 15.1428
RightForeArm  17.7218 8.70838 -4.65947
RightHand  -0.912458 1.16847 -15.8429
LeftUpLeg  -1.20183 -4.09501 -4.89709
LeftLeg  2.96603 17.1084 3.51958
LeftFoot  -1.02592 -0.185758 1.7804
LeftToes  -2.27483e-011 -5.53417e-011 9.36564e-012
